<svg width="110" height="30" viewBox="0 0 110 30" fill="none" xmlns="http://www.w3.org/2000/svg">
<g clip-path="url(#clip0_179_1375)">
<path fill-rule="evenodd" clip-rule="evenodd" d="M26.9783 3.37703H16.8598V27.5095C16.8598 28.4454 16.101 29.1917 15.1776 29.1917C14.2417 29.1917 13.4955 28.4328 13.4955 27.5095V3.37703H3.37703V24.1198C3.37703 25.0558 4.11061 25.8273 5.05922 25.8273C5.99517 25.8273 6.74141 25.0684 6.74141 24.1451V6.7667H10.1184V24.1451C10.1184 26.9403 7.85443 29.2043 5.05922 29.2043C2.264 29.2043 0 26.9403 0 24.1451V0C10.1184 0 20.2369 0 30.3553 0V24.1325C30.3553 26.9277 28.0913 29.1917 25.2961 29.1917C22.5009 29.1917 20.2369 26.9277 20.2369 24.1325V6.74141H23.6139V24.1198C23.6139 25.0558 24.3728 25.802 25.2961 25.802C26.232 25.802 26.9783 25.0431 26.9783 24.1198V3.37703Z" fill="#29313D" fill-opacity="0.8"/>
<path d="M42.8518 5.99512V17.4037C42.8518 18.757 43.2059 19.7815 43.9142 20.4645C44.6225 21.1475 45.6217 21.489 46.8865 21.489C48.1766 21.489 49.1758 21.1475 49.8841 20.4645C50.5924 19.7815 50.9465 18.757 50.9465 17.4037V5.99512H53.8809V17.3531C53.8809 18.8076 53.5647 20.0471 52.9323 21.0589C52.2999 22.0708 51.4524 22.8297 50.3774 23.3229C49.3149 23.8162 48.1387 24.0692 46.8486 24.0692C45.5585 24.0692 44.3948 23.8162 43.3324 23.3229C42.2826 22.8297 41.4352 22.0708 40.8281 21.0589C40.2083 20.0471 39.9048 18.8076 39.9048 17.3531V5.99512H42.8518Z" fill="#29313D" fill-opacity="0.8"/>
<path d="M60.6477 4.84424V23.8922H57.7134V4.84424H60.6477Z" fill="#29313D" fill-opacity="0.8"/>
<path d="M64.4166 12.9518C65.0111 11.8515 65.8205 11.004 66.8324 10.3843C67.8569 9.77719 68.9826 9.47363 70.2221 9.47363C71.3351 9.47363 72.309 9.68865 73.1438 10.1313C73.9785 10.574 74.6362 11.1179 75.1422 11.7629V9.7013H78.1018V23.8924H75.1422V21.7802C74.6489 22.4505 73.9659 23.007 73.1058 23.4497C72.2458 23.8924 71.2719 24.1201 70.1715 24.1201C68.9573 24.1201 67.8316 23.8039 66.8197 23.1841C65.8079 22.5517 64.9984 21.679 64.4166 20.5533C63.8222 19.4276 63.5312 18.1502 63.5312 16.7336C63.5312 15.317 63.8222 14.0522 64.4166 12.9518ZM74.535 14.2419C74.1303 13.521 73.5991 12.9771 72.954 12.5977C72.2963 12.2183 71.6007 12.0285 70.8418 12.0285C70.0829 12.0285 69.3873 12.2183 68.7296 12.5851C68.0719 12.9518 67.5533 13.4957 67.1486 14.204C66.7439 14.9123 66.5415 15.7597 66.5415 16.7463C66.5415 17.7328 66.7439 18.5802 67.1486 19.3265C67.5533 20.06 68.0845 20.6292 68.7422 21.0086C69.3999 21.4007 70.1082 21.5905 70.8418 21.5905C71.6007 21.5905 72.2963 21.4007 72.954 21.0213C73.6117 20.6419 74.1303 20.0853 74.535 19.3644C74.9398 18.6308 75.1422 17.7834 75.1422 16.7968C75.1422 15.8103 74.9398 14.9629 74.535 14.2419Z" fill="#29313D" fill-opacity="0.8"/>
<path d="M86.9428 10.1311C87.8155 9.68844 88.7768 9.47342 89.8392 9.47342C91.0914 9.47342 92.2297 9.77697 93.2415 10.3714C94.2534 10.9785 95.0502 11.826 95.632 12.939C96.2138 14.052 96.5047 15.3168 96.5047 16.7334C96.5047 18.15 96.2138 19.4274 95.632 20.5531C95.0502 21.6788 94.2407 22.5515 93.2289 23.1839C92.2044 23.8163 91.0787 24.1199 89.8392 24.1199C88.7388 24.1199 87.7649 23.9048 86.9175 23.4748C86.0701 23.0448 85.3997 22.5009 84.8938 21.8306V23.8922H81.9595V4.84424H84.8938V11.826C85.3997 11.1303 86.0827 10.5738 86.9428 10.1311ZM92.9127 14.2038C92.5079 13.4955 91.9767 12.9516 91.319 12.5848C90.6613 12.218 89.953 12.0283 89.1941 12.0283C88.4606 12.0283 87.7523 12.218 87.0946 12.5975C86.4369 12.9769 85.9057 13.5208 85.5009 14.2417C85.0962 14.9627 84.8938 15.8101 84.8938 16.7966C84.8938 17.7705 85.0962 18.6306 85.5009 19.3642C85.9057 20.0978 86.4369 20.6416 87.0946 21.0211C87.7523 21.4005 88.4606 21.5902 89.1941 21.5902C89.953 21.5902 90.6613 21.4005 91.319 21.0084C91.9767 20.6163 92.5079 20.0598 92.9127 19.3262C93.3174 18.5927 93.5198 17.7326 93.5198 16.746C93.5198 15.7595 93.3174 14.9121 92.9127 14.2038Z" fill="#29313D" fill-opacity="0.8"/>
<path d="M101.564 23.5256C100.678 23.1209 99.9828 22.577 99.4642 21.8814C98.9456 21.1857 98.68 20.4142 98.6421 19.5541H101.678C101.728 20.1612 102.019 20.6545 102.538 21.0592C103.056 21.464 103.714 21.6663 104.511 21.6663C105.333 21.6663 105.978 21.5019 106.433 21.1857C106.889 20.8695 107.116 20.4648 107.116 19.9589C107.116 19.4276 106.863 19.0356 106.357 18.7699C105.851 18.517 105.042 18.2261 103.954 17.9225C102.892 17.6316 102.019 17.3407 101.349 17.0751C100.678 16.7968 100.097 16.3795 99.616 15.8103C99.1227 15.2411 98.8824 14.4949 98.8824 13.5716C98.8824 12.8127 99.1101 12.1297 99.5527 11.4973C99.9954 10.8649 100.64 10.3716 101.475 10.0175C102.31 9.66335 103.271 9.47363 104.346 9.47363C105.965 9.47363 107.255 9.87837 108.242 10.7005C109.229 11.5226 109.76 12.623 109.823 14.0396H106.889C106.838 13.4072 106.585 12.9013 106.117 12.5218C105.649 12.1424 105.029 11.9526 104.233 11.9526C103.461 11.9526 102.867 12.1044 102.462 12.3953C102.044 12.6862 101.842 13.0783 101.842 13.5589C101.842 13.9384 101.981 14.2546 102.259 14.5076C102.538 14.7605 102.867 14.9629 103.259 15.1147C103.651 15.2664 104.233 15.4435 105.004 15.6712C106.029 15.9494 106.876 16.2277 107.546 16.5059C108.204 16.7842 108.773 17.2016 109.254 17.7581C109.734 18.302 109.987 19.0356 110 19.9462C110 20.7557 109.772 21.4766 109.33 22.109C108.887 22.7414 108.255 23.2473 107.432 23.6015C106.61 23.9556 105.662 24.1454 104.561 24.1454C103.448 24.1201 102.449 23.9303 101.564 23.5256Z" fill="#29313D" fill-opacity="0.8"/>
</g>
<defs>
<clipPath id="clip0_179_1375">
<rect width="110" height="29.1917" fill="white"/>
</clipPath>
</defs>
</svg>
