<svg width="128" height="33" viewBox="0 0 128 33" fill="none" xmlns="http://www.w3.org/2000/svg">
<g clip-path="url(#clip0_179_1414)">
<path fill-rule="evenodd" clip-rule="evenodd" d="M16.5137 25.3979L13.9007 28.0109C15.9562 29.2128 18.3427 29.8922 20.9034 29.8922C23.4467 29.8922 25.8506 29.2128 27.9061 28.0109L25.2932 25.3979C23.9693 26.025 22.4712 26.3734 20.9034 26.3734C19.3356 26.356 17.855 26.0076 16.5137 25.3979ZM7.38573 0L14.9285 7.54273C11.4271 10.0163 9.80707 14.4061 10.8522 18.552C11.009 19.1965 11.2355 19.8062 11.5142 20.3985L8.90124 23.0114C8.58769 22.4714 8.30897 21.914 8.0651 21.3391C6.16635 16.7578 6.88056 11.4447 9.91158 7.52531L7.40315 5.01688C2.21207 11.3751 2.21207 20.6598 7.40315 27.018C11.8974 22.5237 16.4091 18.012 20.9034 13.5177C25.3977 18.012 29.9094 22.5237 34.4037 27.018C39.5948 20.6598 39.5948 11.3751 34.4037 5.01688L31.8952 7.52531C34.9437 11.4622 35.6405 16.7578 33.7243 21.3391C33.4804 21.914 33.2017 22.4714 32.8882 23.0114L30.2752 20.3985C30.5539 19.8062 30.763 19.1965 30.9372 18.552C31.9823 14.3887 30.3623 10.0163 26.861 7.54273L34.4211 0C44.2458 8.29178 44.3155 23.656 34.4211 32.0174C29.9094 27.5057 25.4151 23.0114 20.9034 18.4997C16.3917 23.0114 11.8974 27.5057 7.38573 32.0174C-2.50867 23.6734 -2.42157 8.29178 7.38573 0Z" fill="#29313D" fill-opacity="0.8"/>
<path d="M57.3107 20.712C55.6384 16.0261 53.9139 11.3924 52.1196 6.77621C52.7642 6.79363 53.3042 6.79363 53.7048 6.79363C54.1577 6.79363 54.6803 6.79363 55.29 6.77621L58.1468 15.2248L59.3488 18.5519C59.6101 18.0468 59.9933 17.2455 60.5159 16.1306C61.0385 15.0157 61.4043 14.197 61.6308 13.6744C61.3172 12.7163 60.9166 11.5666 60.4462 10.2079C59.9759 8.84915 59.5404 7.71687 59.192 6.77621C59.7669 6.79363 60.272 6.79363 60.7075 6.79363C61.1953 6.79363 61.7005 6.79363 62.2231 6.77621C62.5366 8.01301 62.9024 9.23239 63.2857 10.4343C63.8605 9.19755 64.3831 7.97817 64.8534 6.77621C65.4457 6.79363 65.916 6.79363 66.2818 6.79363C66.6999 6.79363 67.1702 6.79363 67.7103 6.77621C67.2748 7.64719 66.7348 8.76205 66.0902 10.1208C65.4457 11.4795 64.9231 12.6118 64.5399 13.5002C64.6967 13.988 64.9754 14.8241 65.376 15.9912C65.7941 17.1584 66.0902 17.9945 66.2818 18.4648L69.0167 12.6292L71.0026 8.25688L71.6471 6.75879C72.3091 6.77621 72.8317 6.77621 73.2149 6.77621C73.6504 6.77621 74.173 6.77621 74.8001 6.75879L72.8839 10.5737L68.8774 18.7958L67.9716 20.6946C67.2399 20.6771 66.6128 20.6771 66.1077 20.6771C65.5676 20.6771 64.9405 20.6771 64.2263 20.6946C63.8257 19.3184 63.3728 17.9771 62.9024 16.6532C62.2579 17.9771 61.6482 19.3184 61.0734 20.6946C60.3417 20.6771 59.7146 20.6771 59.192 20.6771C58.6346 20.6946 58.0075 20.712 57.3107 20.712Z" fill="#29313D" fill-opacity="0.8"/>
<path d="M75.8451 12.6118C75.9322 12.124 76.0019 11.7756 76.0193 11.584C76.0367 11.3924 76.089 11.0789 76.1412 10.6782C77.0645 10.4692 77.8832 10.3124 78.5974 10.2253C79.3116 10.1382 79.991 10.0859 80.6529 10.0859C81.402 10.0859 82.0813 10.173 82.7084 10.3472C83.3355 10.5214 83.8233 10.8001 84.1717 11.1834C84.5201 11.5666 84.6943 12.1066 84.6943 12.8208C84.6943 13.2041 84.642 14.197 84.5375 15.7822C84.433 17.3674 84.3633 19.0048 84.3459 20.712C83.8233 20.6945 83.353 20.6945 82.9175 20.6945C82.4994 20.6945 82.0116 20.6945 81.4542 20.712C81.5413 19.8932 81.611 18.9351 81.6633 17.8551L81.8026 15.3118C81.5413 15.486 81.3497 15.608 81.2103 15.6777C81.071 15.7473 80.9142 15.817 80.7574 15.8693C80.5832 15.9215 80.2871 16.0086 79.8516 16.1306C79.4161 16.2525 79.0851 16.357 78.8238 16.4441C78.5626 16.5312 78.3361 16.6357 78.1271 16.7403C77.918 16.8448 77.7438 16.9841 77.6045 17.1235C77.4651 17.2629 77.3606 17.4022 77.2909 17.559C77.2212 17.7158 77.1864 17.8725 77.1864 18.0467C77.1864 18.3255 77.2735 18.5868 77.4303 18.7784C77.587 18.97 77.8135 19.1268 78.0574 19.2139C78.3013 19.301 78.5974 19.3358 78.9458 19.3358C79.1548 19.3358 79.3987 19.3184 79.6426 19.2835C79.8865 19.2487 80.2174 19.1616 80.6181 19.0222C80.4787 19.4055 80.3045 19.9803 80.1129 20.7642C79.6252 20.8513 79.2419 20.9036 78.9632 20.921C78.6845 20.9384 78.4058 20.9558 78.1619 20.9558C77.3083 20.9558 76.5941 20.8339 76.0541 20.6074C75.5141 20.381 75.096 20.0152 74.8347 19.51C74.5734 19.0048 74.4341 18.4997 74.4341 17.9945C74.4341 17.6983 74.4863 17.4196 74.5909 17.1235C74.6954 16.8274 74.8347 16.5835 75.0438 16.3396C75.2528 16.0957 75.4967 15.8693 75.8102 15.6428C76.1238 15.4164 76.5767 15.2073 77.169 14.9983C77.7612 14.7893 78.5451 14.5802 79.5206 14.3712C79.7819 14.3189 80.0432 14.2492 80.3219 14.1796C80.6007 14.1099 80.8271 14.0228 80.9839 13.9531C81.1407 13.8834 81.2974 13.7789 81.4194 13.657C81.5413 13.535 81.6284 13.4131 81.6981 13.2912C81.7678 13.1692 81.7852 13.0299 81.7852 12.8905C81.7852 12.6292 81.6981 12.4028 81.5239 12.2111C81.3497 12.0195 81.1232 11.8976 80.8445 11.8279C80.5658 11.7582 80.2697 11.7234 79.9387 11.7234C78.7193 11.7234 77.3432 12.0195 75.8451 12.6118Z" fill="#29313D" fill-opacity="0.8"/>
<path d="M86.6631 25.398C86.8373 23.4993 86.9941 21.0431 87.116 18.0121C87.2554 14.9985 87.325 12.5423 87.325 10.6609C88.6141 10.4345 89.6244 10.2777 90.3212 10.208C91.0354 10.1384 91.7322 10.1035 92.429 10.1035C93.3523 10.1035 94.1884 10.208 94.9549 10.4345C95.7213 10.6435 96.331 11.0093 96.7839 11.5319C97.2369 12.0545 97.5852 12.6294 97.8117 13.3087C98.0382 13.9881 98.1427 14.6849 98.1427 15.4165C98.1427 16.1656 98.0382 16.8798 97.8291 17.5591C97.6201 18.2385 97.2891 18.8656 96.8536 19.4056C96.4181 19.9457 95.913 20.3463 95.3381 20.6076C94.7633 20.8515 94.1361 20.9734 93.4568 20.9734C93.0561 20.9734 92.6555 20.9212 92.2722 20.8341C91.889 20.747 91.5406 20.6076 91.2445 20.4508C90.9483 20.294 90.7045 20.1373 90.5128 19.9805C90.3212 19.8237 90.0774 19.5798 89.7812 19.2663L89.6244 23.7083L89.6419 24.3877C89.6419 24.4748 89.6244 24.8232 89.6244 25.4154C88.9973 25.4154 88.5096 25.398 88.1786 25.398H86.6631ZM90.147 12.5423C90.0948 12.9081 90.0599 13.2216 90.0425 13.4829L89.9728 14.6152C89.938 15.103 89.938 15.4688 89.938 15.6952C89.938 16.1133 89.9728 16.514 90.0599 16.8798C90.147 17.263 90.3212 17.6114 90.5651 17.925C90.809 18.2385 91.1225 18.4824 91.4709 18.6566C91.8193 18.8308 92.1851 18.9005 92.551 18.9005C93.0735 18.9005 93.5439 18.7611 93.9619 18.465C94.38 18.1688 94.711 17.7333 94.9549 17.1585C95.1987 16.5836 95.3033 15.974 95.3033 15.3294C95.3033 14.6152 95.1813 14.0055 94.92 13.5178C94.6587 13.03 94.3278 12.6642 93.8923 12.4378C93.4568 12.2113 92.969 12.1068 92.429 12.1068C91.7496 12.1416 90.9658 12.2636 90.147 12.5423Z" fill="#29313D" fill-opacity="0.8"/>
<path d="M99.9019 20.7123L100.111 18.0645L100.337 12.9779L100.442 8.62301C100.459 7.83913 100.459 7.22944 100.459 6.79395C101.173 6.81137 101.679 6.81137 101.975 6.81137C102.323 6.81137 102.794 6.81137 103.368 6.79395L103.159 10.1037L102.915 15.3993L102.811 19.3536L102.794 20.7297C102.184 20.7123 101.714 20.7123 101.365 20.7123C100.999 20.6949 100.512 20.7123 99.9019 20.7123ZM103.159 14.9115L105.232 12.3857C105.406 12.1766 105.616 11.8979 105.859 11.5844C106.103 11.2708 106.417 10.8527 106.8 10.3476C107.514 10.365 108.019 10.365 108.35 10.365C108.803 10.365 109.361 10.365 110.058 10.3476L106.696 14.1973L106.086 14.9289C106.591 15.7128 107.967 17.6464 110.232 20.7297C109.622 20.7123 109.099 20.7123 108.664 20.7123C108.228 20.7123 107.688 20.7123 107.044 20.7297C106.643 20.0852 106.33 19.5626 106.086 19.1794C105.842 18.7961 105.616 18.4477 105.389 18.1516L103.647 15.678C103.595 15.5909 103.421 15.3296 103.159 14.9115Z" fill="#29313D" fill-opacity="0.8"/>
<path d="M111.381 20.7122C111.486 19.6844 111.556 18.8308 111.59 18.1515C111.66 17.0715 111.712 15.7998 111.765 14.3888C111.817 12.9778 111.852 11.6191 111.869 10.33C112.531 10.3474 113.036 10.3474 113.367 10.3474C113.663 10.3474 114.169 10.3474 114.848 10.33C114.761 11.5146 114.674 12.6468 114.621 13.7269C114.587 14.8069 114.534 16.0263 114.517 17.4198C114.499 18.8134 114.482 19.9109 114.482 20.7122C113.855 20.6948 113.367 20.6948 112.984 20.6948C112.636 20.6948 112.096 20.7122 111.381 20.7122ZM111.939 8.55322C111.974 7.85643 111.974 7.31642 111.974 6.93318V6.61963C112.601 6.63705 113.088 6.63705 113.489 6.63705C114.012 6.63705 114.517 6.63705 114.97 6.61963C114.952 6.79383 114.935 6.98544 114.935 7.19448L114.883 8.55322C114.36 8.5358 113.89 8.5358 113.454 8.5358C113.019 8.5358 112.514 8.55322 111.939 8.55322Z" fill="#29313D" fill-opacity="0.8"/>
<path d="M127.495 20.7122C126.902 20.6948 126.432 20.6948 126.118 20.6948C125.718 20.6948 125.265 20.6948 124.742 20.7122L124.76 19.0225C124.568 19.3012 124.394 19.5451 124.255 19.7193C124.115 19.8935 123.924 20.0677 123.697 20.2245C123.471 20.3812 123.209 20.5206 122.948 20.6251C122.687 20.7296 122.373 20.7993 122.007 20.869C121.659 20.9387 121.293 20.9735 120.893 20.9735C120.126 20.9735 119.464 20.869 118.907 20.6425C118.349 20.4161 117.896 20.0851 117.565 19.6322C117.234 19.1793 117.078 18.5348 117.078 17.6986V17.4896L117.234 14.8592L117.391 11.3927C117.391 11.114 117.409 10.7656 117.409 10.3475C118.053 10.3649 118.558 10.3649 118.924 10.3649C119.307 10.3649 119.778 10.3649 120.335 10.3475L120.004 14.9986C119.987 15.3644 119.969 15.6605 119.952 15.9044C119.934 16.1483 119.934 16.3399 119.934 16.4444C119.934 16.9321 120.004 17.3328 120.161 17.6638C120.318 17.9947 120.562 18.2386 120.927 18.3954C121.293 18.5696 121.676 18.6567 122.095 18.6567C122.495 18.6567 122.861 18.587 123.209 18.4302C123.523 18.2909 123.802 18.0993 124.028 17.8554C124.255 17.6115 124.446 17.2805 124.603 16.8625C124.725 16.5663 124.812 16.1483 124.864 15.6257C124.917 15.2599 124.951 14.6153 125.004 13.6921C125.056 12.5946 125.091 11.4624 125.126 10.3301C125.805 10.3475 126.31 10.3475 126.676 10.3475C127.077 10.3475 127.529 10.3475 128.035 10.3301C127.948 11.3056 127.86 12.525 127.773 13.9708C127.686 15.4166 127.617 16.636 127.599 17.5767C127.529 18.5522 127.512 19.5799 127.495 20.7122Z" fill="#29313D" fill-opacity="0.8"/>
</g>
<defs>
<clipPath id="clip0_179_1414">
<rect width="128" height="32.0174" fill="white"/>
</clipPath>
</defs>
</svg>
