<svg width="110" height="26" viewBox="0 0 110 26" fill="none" xmlns="http://www.w3.org/2000/svg">
<g clip-path="url(#clip0_179_1387)">
<path fill-rule="evenodd" clip-rule="evenodd" d="M5.48902 0C5.48902 3.03511 3.03511 5.48902 0 5.48902V9.49278C5.24363 9.49278 9.49278 5.24363 9.49278 0H5.48902ZM15.4984 14.194C14.7235 15.2789 13.8582 16.2733 12.9024 17.1903C9.31196 19.9025 4.84325 21.5041 0 21.5041V25.482L0.413291 25.5078C6.08313 25.4174 11.3009 23.4801 15.4855 20.2642C19.683 23.4801 24.9008 25.4174 30.5577 25.5078L30.9968 25.4949V21.5041C26.1536 21.5041 21.6849 19.9025 18.0944 17.2032C17.1387 16.2863 16.2733 15.2789 15.4984 14.194ZM15.2659 8.56287C15.3434 8.42081 15.4209 8.27874 15.4984 8.13667C15.5759 8.27874 15.6534 8.42081 15.7309 8.56287C18.7273 13.8969 24.4487 17.5003 30.9968 17.5003V13.4965C23.5447 13.4965 17.5003 7.45216 17.5003 0H13.4965C13.4965 3.03511 12.4891 5.83774 10.8101 8.08501C8.34331 11.3784 4.41705 13.4965 0 13.4965V17.5003C4.93366 17.5003 9.40237 15.4597 12.5795 12.1663C13.6257 11.0943 14.5298 9.88024 15.2659 8.56287ZM21.504 0C21.504 5.24363 25.7532 9.49278 30.9968 9.49278V5.48902C27.9617 5.48902 25.5078 3.03511 25.5078 0H21.504Z" fill="#29313D" fill-opacity="0.8"/>
<path d="M50.2021 21.62L46.4825 15.1623H44.4548V21.62H41.8071V5.46289H47.3866C48.6264 5.46289 49.6726 5.68245 50.5379 6.10866C51.4032 6.53486 52.0361 7.12897 52.4623 7.85223C52.8885 8.57549 53.1081 9.38916 53.1081 10.2932C53.1081 11.3523 52.7981 12.308 52.1911 13.1604C51.584 14.0258 50.6412 14.607 49.3626 14.9169L53.3664 21.6071H50.2021V21.62ZM44.4677 13.0442H47.3995C48.394 13.0442 49.143 12.7988 49.6467 12.2951C50.1504 11.8043 50.3958 11.1327 50.3958 10.2932C50.3958 9.45373 50.1504 8.80796 49.6467 8.3301C49.156 7.85223 48.394 7.61975 47.3866 7.61975H44.4548V13.0442H44.4677Z" fill="#29313D" fill-opacity="0.8"/>
<path d="M56.647 6.62541C56.3242 6.30253 56.1562 5.90215 56.1562 5.41137C56.1562 4.92059 56.3242 4.53313 56.647 4.19733C56.9699 3.86153 57.3703 3.70654 57.8611 3.70654C58.326 3.70654 58.7264 3.87444 59.0493 4.19733C59.3722 4.52021 59.5401 4.92059 59.5401 5.41137C59.5401 5.90215 59.3722 6.28961 59.0493 6.62541C58.7264 6.96121 58.326 7.11619 57.8611 7.11619C57.3703 7.11619 56.9699 6.9483 56.647 6.62541ZM59.1526 8.80811V21.6201H56.505V8.80811H59.1526Z" fill="#29313D" fill-opacity="0.8"/>
<path d="M71.8095 9.23441C72.6103 9.64771 73.2302 10.2676 73.6823 11.0942C74.1343 11.9208 74.3539 12.9024 74.3539 14.0648V21.6202H71.732V14.4651C71.732 13.3157 71.4479 12.4374 70.8667 11.8304C70.2984 11.2234 69.5106 10.9134 68.5161 10.9134C67.5216 10.9134 66.7338 11.2234 66.1526 11.8304C65.5714 12.4374 65.2744 13.3157 65.2744 14.4651V21.6202H62.6396V8.80821H65.2873V10.2676C65.7264 9.73811 66.2818 9.32482 66.9534 9.04068C67.625 8.75655 68.3482 8.60156 69.1102 8.60156C70.1047 8.60156 71.0088 8.80821 71.8095 9.23441Z" fill="#29313D" fill-opacity="0.8"/>
<path d="M83.0976 10.9778H80.7212V21.6201H78.0477V10.9778H76.5366V8.80806H78.0477V7.90398C78.0477 6.43163 78.4352 5.35966 79.223 4.68806C80.0108 4.01646 81.2378 3.68066 82.9039 3.68066V5.88919C82.1031 5.88919 81.5349 6.04417 81.212 6.34123C80.8891 6.63828 80.7212 7.16781 80.7212 7.90398V8.80806H83.0976V10.9778Z" fill="#29313D" fill-opacity="0.8"/>
<path d="M85.3704 11.74C85.8999 10.7455 86.6361 9.97059 87.5531 9.42815C88.47 8.8857 89.4904 8.60156 90.614 8.60156C91.6214 8.60156 92.4996 8.79529 93.2487 9.19567C93.9978 9.59604 94.6048 10.0868 95.0569 10.668V8.80821H97.7303V21.6202H95.0569V19.7088C94.6048 20.3158 93.9978 20.8195 93.2229 21.2199C92.448 21.6202 91.5697 21.8269 90.5752 21.8269C89.4774 21.8269 88.47 21.5427 87.5531 20.9745C86.6361 20.4062 85.9128 19.6184 85.3833 18.598C84.8537 17.5777 84.5825 16.4283 84.5825 15.1496C84.5825 13.871 84.8279 12.7345 85.3704 11.74ZM94.5015 12.9024C94.1399 12.2566 93.662 11.7529 93.0679 11.4171C92.4738 11.0813 91.841 10.9005 91.1564 10.9005C90.4719 10.9005 89.8391 11.0684 89.245 11.4042C88.6638 11.74 88.1988 12.2179 87.8243 12.8636C87.4626 13.5094 87.2818 14.2714 87.2818 15.1496C87.2818 16.0279 87.4626 16.8028 87.8243 17.4744C88.1859 18.146 88.6638 18.6497 89.2708 18.9984C89.8778 19.3471 90.4977 19.515 91.1693 19.515C91.8539 19.515 92.4867 19.3471 93.0808 18.9984C93.6749 18.6626 94.1528 18.1589 94.5144 17.5002C94.8761 16.8416 95.0569 16.0666 95.0569 15.1884C95.044 14.3231 94.8631 13.5481 94.5015 12.9024Z" fill="#29313D" fill-opacity="0.8"/>
<path d="M103.852 4.41699V21.6202H101.205V4.41699H103.852Z" fill="#29313D" fill-opacity="0.8"/>
<path d="M110 4.41699V21.6202H107.353V4.41699H110Z" fill="#29313D" fill-opacity="0.8"/>
</g>
<defs>
<clipPath id="clip0_179_1387">
<rect width="110" height="25.4949" fill="white"/>
</clipPath>
</defs>
</svg>
